<mxfile host="app.diagrams.net" modified="2021-04-13T14:29:33.549Z" agent="5.0 (Macintosh; Intel Mac OS X 11_2_3) AppleWebKit/537.36 (KHTML, like Gecko) Chrome/89.0.4389.114 Safari/537.36" etag="tbAl52EBq5ueMR-RmMFk" version="14.5.10" type="github">
  <diagram id="kO-ziCeEcmC-jkOYy7A9" name="Page-1">
    <mxGraphModel dx="1106" dy="1014" grid="1" gridSize="10" guides="1" tooltips="1" connect="1" arrows="1" fold="1" page="0" pageScale="1" pageWidth="827" pageHeight="1169" math="0" shadow="0">
      <root>
        <mxCell id="0" />
        <mxCell id="1" parent="0" />
        <mxCell id="Fa2bvCt-snTJg5LQXZlS-63" value="" style="rounded=0;whiteSpace=wrap;html=1;strokeWidth=2;dashed=1;" vertex="1" parent="1">
          <mxGeometry x="160" y="50" width="660" height="510" as="geometry" />
        </mxCell>
        <mxCell id="Fa2bvCt-snTJg5LQXZlS-29" style="edgeStyle=orthogonalEdgeStyle;curved=1;rounded=0;orthogonalLoop=1;jettySize=auto;html=1;exitX=0.5;exitY=1;exitDx=0;exitDy=0;entryX=0.5;entryY=0;entryDx=0;entryDy=0;entryPerimeter=0;startArrow=classic;startFill=1;" edge="1" parent="1" source="Fa2bvCt-snTJg5LQXZlS-1" target="Fa2bvCt-snTJg5LQXZlS-4">
          <mxGeometry relative="1" as="geometry" />
        </mxCell>
        <mxCell id="Fa2bvCt-snTJg5LQXZlS-30" style="edgeStyle=orthogonalEdgeStyle;curved=1;rounded=0;orthogonalLoop=1;jettySize=auto;html=1;exitX=0.5;exitY=1;exitDx=0;exitDy=0;entryX=0.5;entryY=0;entryDx=0;entryDy=0;startArrow=classic;startFill=1;" edge="1" parent="1" source="Fa2bvCt-snTJg5LQXZlS-1" target="Fa2bvCt-snTJg5LQXZlS-3">
          <mxGeometry relative="1" as="geometry" />
        </mxCell>
        <mxCell id="Fa2bvCt-snTJg5LQXZlS-1" value="&lt;font style=&quot;font-size: 20px&quot;&gt;节点发现&lt;/font&gt;" style="rounded=0;whiteSpace=wrap;html=1;strokeWidth=2;" vertex="1" parent="1">
          <mxGeometry x="250" y="70" width="100" height="50" as="geometry" />
        </mxCell>
        <mxCell id="Fa2bvCt-snTJg5LQXZlS-35" style="edgeStyle=orthogonalEdgeStyle;curved=1;rounded=0;orthogonalLoop=1;jettySize=auto;html=1;exitX=1;exitY=0.5;exitDx=0;exitDy=0;startArrow=classic;startFill=1;" edge="1" parent="1" source="Fa2bvCt-snTJg5LQXZlS-3" target="Fa2bvCt-snTJg5LQXZlS-5">
          <mxGeometry relative="1" as="geometry" />
        </mxCell>
        <mxCell id="Fa2bvCt-snTJg5LQXZlS-44" style="edgeStyle=orthogonalEdgeStyle;curved=1;rounded=0;orthogonalLoop=1;jettySize=auto;html=1;exitX=0.5;exitY=1;exitDx=0;exitDy=0;entryX=0.5;entryY=0;entryDx=0;entryDy=0;startArrow=classic;startFill=1;" edge="1" parent="1" source="Fa2bvCt-snTJg5LQXZlS-3" target="Fa2bvCt-snTJg5LQXZlS-14">
          <mxGeometry relative="1" as="geometry" />
        </mxCell>
        <mxCell id="Fa2bvCt-snTJg5LQXZlS-45" style="edgeStyle=orthogonalEdgeStyle;curved=1;rounded=0;orthogonalLoop=1;jettySize=auto;html=1;exitX=0.5;exitY=1;exitDx=0;exitDy=0;entryX=0.5;entryY=0;entryDx=0;entryDy=0;startArrow=classic;startFill=1;" edge="1" parent="1" source="Fa2bvCt-snTJg5LQXZlS-3" target="Fa2bvCt-snTJg5LQXZlS-15">
          <mxGeometry relative="1" as="geometry" />
        </mxCell>
        <mxCell id="Fa2bvCt-snTJg5LQXZlS-3" value="&lt;font style=&quot;font-size: 20px&quot;&gt;连接管理&lt;/font&gt;" style="rounded=0;whiteSpace=wrap;html=1;strokeWidth=2;" vertex="1" parent="1">
          <mxGeometry x="350" y="170" width="120" height="40" as="geometry" />
        </mxCell>
        <mxCell id="Fa2bvCt-snTJg5LQXZlS-4" value="&lt;font style=&quot;font-size: 20px&quot;&gt;节点&lt;/font&gt;" style="shape=cylinder3;whiteSpace=wrap;html=1;boundedLbl=1;backgroundOutline=1;size=15;strokeWidth=2;" vertex="1" parent="1">
          <mxGeometry x="180" y="170" width="70" height="80" as="geometry" />
        </mxCell>
        <mxCell id="Fa2bvCt-snTJg5LQXZlS-36" style="edgeStyle=orthogonalEdgeStyle;curved=1;rounded=0;orthogonalLoop=1;jettySize=auto;html=1;exitX=1;exitY=0.5;exitDx=0;exitDy=0;entryX=0;entryY=0.5;entryDx=0;entryDy=0;startArrow=classic;startFill=1;" edge="1" parent="1" source="Fa2bvCt-snTJg5LQXZlS-5" target="Fa2bvCt-snTJg5LQXZlS-6">
          <mxGeometry relative="1" as="geometry" />
        </mxCell>
        <mxCell id="Fa2bvCt-snTJg5LQXZlS-54" style="edgeStyle=orthogonalEdgeStyle;curved=1;rounded=0;orthogonalLoop=1;jettySize=auto;html=1;exitX=0.5;exitY=1;exitDx=0;exitDy=0;entryX=0.5;entryY=0;entryDx=0;entryDy=0;startArrow=classic;startFill=1;" edge="1" parent="1" source="Fa2bvCt-snTJg5LQXZlS-5" target="Fa2bvCt-snTJg5LQXZlS-20">
          <mxGeometry relative="1" as="geometry" />
        </mxCell>
        <mxCell id="Fa2bvCt-snTJg5LQXZlS-5" value="&lt;font style=&quot;font-size: 20px&quot;&gt;钱包&lt;/font&gt;" style="rounded=0;whiteSpace=wrap;html=1;strokeWidth=2;" vertex="1" parent="1">
          <mxGeometry x="570" y="170" width="90" height="40" as="geometry" />
        </mxCell>
        <mxCell id="Fa2bvCt-snTJg5LQXZlS-37" style="edgeStyle=orthogonalEdgeStyle;curved=1;rounded=0;orthogonalLoop=1;jettySize=auto;html=1;exitX=1;exitY=0.5;exitDx=0;exitDy=0;entryX=0;entryY=0.5;entryDx=0;entryDy=0;startArrow=classic;startFill=1;" edge="1" parent="1" source="Fa2bvCt-snTJg5LQXZlS-6" target="Fa2bvCt-snTJg5LQXZlS-7">
          <mxGeometry relative="1" as="geometry" />
        </mxCell>
        <mxCell id="Fa2bvCt-snTJg5LQXZlS-57" style="edgeStyle=orthogonalEdgeStyle;curved=1;rounded=0;orthogonalLoop=1;jettySize=auto;html=1;exitX=0.5;exitY=0;exitDx=0;exitDy=0;entryX=1;entryY=0;entryDx=0;entryDy=0;startArrow=classic;startFill=1;" edge="1" parent="1" source="Fa2bvCt-snTJg5LQXZlS-6" target="Fa2bvCt-snTJg5LQXZlS-3">
          <mxGeometry relative="1" as="geometry">
            <Array as="points">
              <mxPoint x="755" y="120" />
              <mxPoint x="470" y="120" />
            </Array>
          </mxGeometry>
        </mxCell>
        <mxCell id="Fa2bvCt-snTJg5LQXZlS-6" value="&lt;font style=&quot;font-size: 20px&quot;&gt;RPC&lt;/font&gt;" style="rounded=0;whiteSpace=wrap;html=1;strokeWidth=2;" vertex="1" parent="1">
          <mxGeometry x="710" y="170" width="90" height="40" as="geometry" />
        </mxCell>
        <mxCell id="Fa2bvCt-snTJg5LQXZlS-7" value="&lt;font style=&quot;font-size: 20px&quot;&gt;WEB/APP&lt;/font&gt;" style="rounded=0;whiteSpace=wrap;html=1;strokeWidth=2;" vertex="1" parent="1">
          <mxGeometry x="860" y="170" width="100" height="40" as="geometry" />
        </mxCell>
        <mxCell id="Fa2bvCt-snTJg5LQXZlS-14" value="&lt;font style=&quot;font-size: 20px&quot;&gt;交易&lt;/font&gt;" style="shape=document;whiteSpace=wrap;html=1;boundedLbl=1;strokeWidth=2;" vertex="1" parent="1">
          <mxGeometry x="300" y="260" width="75" height="50" as="geometry" />
        </mxCell>
        <mxCell id="Fa2bvCt-snTJg5LQXZlS-15" value="&lt;font style=&quot;font-size: 20px&quot;&gt;区块&lt;/font&gt;" style="shape=document;whiteSpace=wrap;html=1;boundedLbl=1;strokeWidth=2;" vertex="1" parent="1">
          <mxGeometry x="442.5" y="260" width="75" height="50" as="geometry" />
        </mxCell>
        <mxCell id="Fa2bvCt-snTJg5LQXZlS-46" style="edgeStyle=orthogonalEdgeStyle;curved=1;rounded=0;orthogonalLoop=1;jettySize=auto;html=1;exitX=0.5;exitY=1;exitDx=0;exitDy=0;entryX=0.5;entryY=0;entryDx=0;entryDy=0;startArrow=classic;startFill=1;" edge="1" parent="1" source="Fa2bvCt-snTJg5LQXZlS-16" target="Fa2bvCt-snTJg5LQXZlS-21">
          <mxGeometry relative="1" as="geometry" />
        </mxCell>
        <mxCell id="Fa2bvCt-snTJg5LQXZlS-60" style="edgeStyle=orthogonalEdgeStyle;curved=1;rounded=0;orthogonalLoop=1;jettySize=auto;html=1;exitX=0.5;exitY=0;exitDx=0;exitDy=0;startArrow=classic;startFill=1;" edge="1" parent="1" source="Fa2bvCt-snTJg5LQXZlS-16" target="Fa2bvCt-snTJg5LQXZlS-14">
          <mxGeometry relative="1" as="geometry" />
        </mxCell>
        <mxCell id="Fa2bvCt-snTJg5LQXZlS-16" value="&lt;font style=&quot;font-size: 20px&quot;&gt;内存池&lt;/font&gt;" style="rounded=0;whiteSpace=wrap;html=1;strokeWidth=2;" vertex="1" parent="1">
          <mxGeometry x="292.5" y="340" width="90" height="60" as="geometry" />
        </mxCell>
        <mxCell id="Fa2bvCt-snTJg5LQXZlS-41" style="edgeStyle=orthogonalEdgeStyle;curved=1;rounded=0;orthogonalLoop=1;jettySize=auto;html=1;exitX=1;exitY=0.5;exitDx=0;exitDy=0;entryX=0;entryY=0.5;entryDx=0;entryDy=0;startArrow=classic;startFill=1;" edge="1" parent="1" source="Fa2bvCt-snTJg5LQXZlS-19" target="Fa2bvCt-snTJg5LQXZlS-20">
          <mxGeometry relative="1" as="geometry" />
        </mxCell>
        <mxCell id="Fa2bvCt-snTJg5LQXZlS-43" style="edgeStyle=orthogonalEdgeStyle;curved=1;rounded=0;orthogonalLoop=1;jettySize=auto;html=1;exitX=0;exitY=0.5;exitDx=0;exitDy=0;entryX=1;entryY=0.5;entryDx=0;entryDy=0;startArrow=classic;startFill=1;" edge="1" parent="1" source="Fa2bvCt-snTJg5LQXZlS-19" target="Fa2bvCt-snTJg5LQXZlS-16">
          <mxGeometry relative="1" as="geometry" />
        </mxCell>
        <mxCell id="Fa2bvCt-snTJg5LQXZlS-61" style="edgeStyle=orthogonalEdgeStyle;curved=1;rounded=0;orthogonalLoop=1;jettySize=auto;html=1;exitX=0.5;exitY=0;exitDx=0;exitDy=0;startArrow=classic;startFill=1;" edge="1" parent="1" source="Fa2bvCt-snTJg5LQXZlS-19" target="Fa2bvCt-snTJg5LQXZlS-15">
          <mxGeometry relative="1" as="geometry" />
        </mxCell>
        <mxCell id="Fa2bvCt-snTJg5LQXZlS-19" value="&lt;font style=&quot;font-size: 20px&quot;&gt;验证引擎&lt;/font&gt;" style="rounded=0;whiteSpace=wrap;html=1;strokeWidth=2;" vertex="1" parent="1">
          <mxGeometry x="435" y="340" width="90" height="60" as="geometry" />
        </mxCell>
        <mxCell id="Fa2bvCt-snTJg5LQXZlS-48" style="edgeStyle=orthogonalEdgeStyle;curved=1;rounded=0;orthogonalLoop=1;jettySize=auto;html=1;exitX=0.5;exitY=1;exitDx=0;exitDy=0;startArrow=classic;startFill=1;" edge="1" parent="1" source="Fa2bvCt-snTJg5LQXZlS-20" target="Fa2bvCt-snTJg5LQXZlS-22">
          <mxGeometry relative="1" as="geometry" />
        </mxCell>
        <mxCell id="Fa2bvCt-snTJg5LQXZlS-49" style="edgeStyle=orthogonalEdgeStyle;curved=1;rounded=0;orthogonalLoop=1;jettySize=auto;html=1;exitX=0.5;exitY=1;exitDx=0;exitDy=0;entryX=0.5;entryY=0;entryDx=0;entryDy=0;entryPerimeter=0;startArrow=classic;startFill=1;" edge="1" parent="1" source="Fa2bvCt-snTJg5LQXZlS-20" target="Fa2bvCt-snTJg5LQXZlS-23">
          <mxGeometry relative="1" as="geometry" />
        </mxCell>
        <mxCell id="Fa2bvCt-snTJg5LQXZlS-50" style="edgeStyle=orthogonalEdgeStyle;curved=1;rounded=0;orthogonalLoop=1;jettySize=auto;html=1;exitX=0.5;exitY=1;exitDx=0;exitDy=0;entryX=0.5;entryY=0;entryDx=0;entryDy=0;entryPerimeter=0;startArrow=classic;startFill=1;" edge="1" parent="1" source="Fa2bvCt-snTJg5LQXZlS-20" target="Fa2bvCt-snTJg5LQXZlS-24">
          <mxGeometry relative="1" as="geometry" />
        </mxCell>
        <mxCell id="Fa2bvCt-snTJg5LQXZlS-56" style="edgeStyle=orthogonalEdgeStyle;curved=1;rounded=0;orthogonalLoop=1;jettySize=auto;html=1;exitX=1;exitY=0.5;exitDx=0;exitDy=0;startArrow=classic;startFill=1;" edge="1" parent="1" source="Fa2bvCt-snTJg5LQXZlS-20" target="Fa2bvCt-snTJg5LQXZlS-6">
          <mxGeometry relative="1" as="geometry" />
        </mxCell>
        <mxCell id="Fa2bvCt-snTJg5LQXZlS-20" value="&lt;font style=&quot;font-size: 20px&quot;&gt;存储引擎&lt;/font&gt;" style="rounded=0;whiteSpace=wrap;html=1;strokeWidth=2;" vertex="1" parent="1">
          <mxGeometry x="570" y="340" width="90" height="60" as="geometry" />
        </mxCell>
        <mxCell id="Fa2bvCt-snTJg5LQXZlS-47" style="edgeStyle=orthogonalEdgeStyle;curved=1;rounded=0;orthogonalLoop=1;jettySize=auto;html=1;exitX=1;exitY=0.5;exitDx=0;exitDy=0;entryX=0.5;entryY=1;entryDx=0;entryDy=0;startArrow=classic;startFill=1;" edge="1" parent="1" source="Fa2bvCt-snTJg5LQXZlS-21" target="Fa2bvCt-snTJg5LQXZlS-19">
          <mxGeometry relative="1" as="geometry" />
        </mxCell>
        <mxCell id="Fa2bvCt-snTJg5LQXZlS-21" value="&lt;font style=&quot;font-size: 20px&quot;&gt;造币&lt;/font&gt;" style="rounded=0;whiteSpace=wrap;html=1;strokeWidth=2;" vertex="1" parent="1">
          <mxGeometry x="292.5" y="460" width="90" height="60" as="geometry" />
        </mxCell>
        <mxCell id="Fa2bvCt-snTJg5LQXZlS-22" value="&lt;font style=&quot;font-size: 20px&quot;&gt;区块头&lt;/font&gt;" style="shape=cylinder3;whiteSpace=wrap;html=1;boundedLbl=1;backgroundOutline=1;size=15;strokeWidth=2;" vertex="1" parent="1">
          <mxGeometry x="480" y="450" width="70" height="80" as="geometry" />
        </mxCell>
        <mxCell id="Fa2bvCt-snTJg5LQXZlS-23" value="&lt;font style=&quot;font-size: 20px&quot;&gt;区块&lt;/font&gt;" style="shape=cylinder3;whiteSpace=wrap;html=1;boundedLbl=1;backgroundOutline=1;size=15;strokeWidth=2;" vertex="1" parent="1">
          <mxGeometry x="580" y="450" width="70" height="80" as="geometry" />
        </mxCell>
        <mxCell id="Fa2bvCt-snTJg5LQXZlS-24" value="&lt;font style=&quot;font-size: 20px&quot;&gt;数字&lt;br&gt;货币&lt;/font&gt;" style="shape=cylinder3;whiteSpace=wrap;html=1;boundedLbl=1;backgroundOutline=1;size=15;strokeWidth=2;" vertex="1" parent="1">
          <mxGeometry x="680" y="450" width="70" height="80" as="geometry" />
        </mxCell>
        <mxCell id="Fa2bvCt-snTJg5LQXZlS-59" value="" style="edgeStyle=orthogonalEdgeStyle;curved=1;rounded=0;orthogonalLoop=1;jettySize=auto;html=1;startArrow=classic;startFill=1;" edge="1" parent="1" source="Fa2bvCt-snTJg5LQXZlS-25" target="Fa2bvCt-snTJg5LQXZlS-1">
          <mxGeometry relative="1" as="geometry" />
        </mxCell>
        <mxCell id="Fa2bvCt-snTJg5LQXZlS-25" value="&lt;font style=&quot;font-size: 20px&quot;&gt;P2P&lt;br&gt;网络&lt;/font&gt;" style="ellipse;shape=cloud;whiteSpace=wrap;html=1;strokeWidth=2;" vertex="1" parent="1">
          <mxGeometry x="240" y="-50" width="120" height="80" as="geometry" />
        </mxCell>
        <mxCell id="Fa2bvCt-snTJg5LQXZlS-64" value="" style="rounded=0;whiteSpace=wrap;html=1;dashed=1;strokeWidth=2;fillColor=none;dashPattern=1 1;" vertex="1" parent="1">
          <mxGeometry x="272.5" y="450" width="130" height="80" as="geometry" />
        </mxCell>
      </root>
    </mxGraphModel>
  </diagram>
</mxfile>
